<svg width="306" height="45" viewBox="0 0 306 45" fill="none" xmlns="http://www.w3.org/2000/svg">
<g filter="url(#filter0_dd_2422_1260)">
<path d="M63.8193 38.76L64.6193 33.832L65.2273 30.216H64.6193L65.6113 28.712C65.3979 30.0987 64.7579 31.2187 63.6913 32.072C62.6246 32.904 61.3339 33.32 59.8193 33.32C58.0699 33.32 56.7579 32.7333 55.8833 31.56C55.0299 30.3867 54.7633 28.8187 55.0833 26.856L55.9153 21.512C56.1286 20.2107 56.5446 19.08 57.1633 18.12C57.8033 17.1387 58.5926 16.392 59.5313 15.88C60.4913 15.3467 61.5579 15.08 62.7313 15.08C64.2459 15.08 65.3979 15.496 66.1873 16.328C66.9979 17.16 67.2859 18.28 67.0513 19.688L66.3153 18.184H67.0833L67.5313 15.4H69.6433L65.9313 38.76H63.8193ZM60.7153 31.496C62.0593 31.496 63.1686 31.08 64.0433 30.248C64.9393 29.416 65.5046 28.264 65.7393 26.792L66.5393 21.576C66.7953 20.104 66.6033 18.9627 65.9633 18.152C65.3446 17.32 64.3633 16.904 63.0193 16.904C61.6753 16.904 60.5659 17.3093 59.6913 18.12C58.8166 18.9307 58.2513 20.0827 57.9953 21.576L57.1953 26.792C56.9606 28.264 57.1526 29.416 57.7713 30.248C58.3899 31.08 59.3713 31.496 60.7153 31.496ZM79.6468 33.32C77.7054 33.32 76.2548 32.7333 75.2948 31.56C74.3561 30.3653 74.0468 28.7547 74.3668 26.728L76.1588 15.4H78.2708L76.4788 26.728C76.2441 28.2 76.4361 29.352 77.0548 30.184C77.6734 31.016 78.6441 31.432 79.9668 31.432C81.3108 31.432 82.4201 31.016 83.2948 30.184C84.1908 29.352 84.7668 28.2 85.0228 26.728L86.7828 15.4H88.8948L87.1348 26.728C86.9214 28.072 86.4734 29.2453 85.7908 30.248C85.1081 31.2293 84.2441 31.9867 83.1988 32.52C82.1534 33.0533 80.9694 33.32 79.6468 33.32ZM92.1783 33L92.4663 31.08H98.8343L101.01 17.32H95.4743L95.7623 15.4H103.442L100.946 31.08H106.93L106.642 33H92.1783ZM102.866 12.104C102.269 12.104 101.8 11.944 101.458 11.624C101.117 11.2827 100.957 10.824 100.978 10.248C101.021 9.672 101.234 9.21333 101.618 8.872C102.024 8.53067 102.525 8.36 103.122 8.36C103.741 8.36 104.221 8.53067 104.562 8.872C104.925 9.21333 105.085 9.672 105.042 10.248C105 10.824 104.776 11.2827 104.37 11.624C103.986 11.944 103.485 12.104 102.866 12.104ZM118.15 33.32C116.806 33.32 115.686 33.064 114.79 32.552C113.894 32.0187 113.264 31.2613 112.902 30.28C112.539 29.2987 112.454 28.136 112.646 26.792L113.446 21.608C113.68 20.264 114.139 19.112 114.822 18.152C115.504 17.1707 116.379 16.4133 117.446 15.88C118.512 15.3467 119.718 15.08 121.062 15.08C123.024 15.08 124.507 15.6347 125.51 16.744C126.534 17.832 126.907 19.304 126.63 21.16H124.518C124.71 19.8373 124.464 18.8133 123.782 18.088C123.12 17.3627 122.107 17 120.742 17C119.355 17 118.203 17.4053 117.286 18.216C116.368 19.0053 115.803 20.136 115.59 21.608L114.758 26.792C114.523 28.2427 114.736 29.3733 115.398 30.184C116.059 30.9947 117.083 31.4 118.47 31.4C119.835 31.4 120.966 31.0373 121.862 30.312C122.758 29.5653 123.323 28.5413 123.558 27.24H125.67C125.35 29.096 124.507 30.5787 123.142 31.688C121.776 32.776 120.112 33.32 118.15 33.32ZM131.097 33L134.809 9.64H136.921L134.809 22.92H138.521L145.049 15.4H147.577L140.249 23.912L144.889 33H142.457L138.329 24.808H134.521L133.209 33H131.097ZM156.525 33.32C154.967 33.32 153.645 33.032 152.557 32.456C151.49 31.8587 150.722 31.0373 150.253 29.992C149.783 28.9253 149.655 27.688 149.869 26.28L150.541 22.12C150.775 20.6907 151.298 19.4533 152.109 18.408C152.919 17.3627 153.954 16.552 155.213 15.976C156.471 15.3787 157.879 15.08 159.437 15.08C161.762 15.08 163.522 15.6667 164.717 16.84C165.911 18.0133 166.391 19.6133 166.157 21.64H161.357C161.421 20.8933 161.218 20.3067 160.749 19.88C160.301 19.4533 159.639 19.24 158.765 19.24C157.805 19.24 157.026 19.4853 156.429 19.976C155.853 20.4667 155.49 21.1813 155.341 22.12L154.669 26.28C154.519 27.1973 154.658 27.912 155.085 28.424C155.533 28.9147 156.237 29.16 157.197 29.16C158.071 29.16 158.797 28.9573 159.373 28.552C159.97 28.1253 160.365 27.528 160.557 26.76H165.357C164.951 28.7867 163.959 30.3867 162.381 31.56C160.802 32.7333 158.85 33.32 156.525 33.32ZM173.792 33.32C172.022 33.32 170.699 32.7013 169.824 31.464C168.95 30.2267 168.683 28.552 169.024 26.44L169.76 21.96C169.995 20.552 170.432 19.336 171.072 18.312C171.712 17.288 172.512 16.4987 173.472 15.944C174.454 15.368 175.531 15.08 176.704 15.08C178.155 15.08 179.222 15.5067 179.904 16.36C180.608 17.192 180.843 18.3653 180.608 19.88L179.648 18.76H180.768L181.184 15.4H185.952L183.168 33H178.528L179.072 29.64H177.952L179.232 28.52C178.998 30.0347 178.39 31.2187 177.408 32.072C176.448 32.904 175.243 33.32 173.792 33.32ZM176.192 29.16C177.067 29.16 177.782 28.9147 178.336 28.424C178.912 27.912 179.275 27.1973 179.424 26.28L180.096 22.12C180.246 21.2027 180.107 20.4987 179.68 20.008C179.275 19.496 178.635 19.24 177.76 19.24C176.864 19.24 176.139 19.496 175.584 20.008C175.03 20.4987 174.678 21.2027 174.528 22.12L173.856 26.28C173.707 27.1973 173.835 27.912 174.24 28.424C174.646 28.9147 175.296 29.16 176.192 29.16ZM194.068 33.32C191.892 33.32 190.217 32.8187 189.044 31.816C187.87 30.8133 187.412 29.5013 187.668 27.88H192.468C192.382 28.392 192.542 28.808 192.948 29.128C193.374 29.4267 193.95 29.576 194.676 29.576H196.084C196.958 29.576 197.652 29.416 198.164 29.096C198.676 28.776 198.974 28.328 199.06 27.752C199.145 27.2187 199.017 26.792 198.676 26.472C198.334 26.152 197.748 25.9387 196.916 25.832L194.9 25.576C192.766 25.2987 191.241 24.7867 190.324 24.04C189.428 23.272 189.108 22.0773 189.364 20.456C189.641 18.7493 190.441 17.4267 191.764 16.488C193.086 15.5493 194.878 15.08 197.14 15.08H198.356C200.51 15.08 202.153 15.5493 203.284 16.488C204.414 17.4267 204.852 18.6853 204.596 20.264H199.796C199.86 19.8373 199.7 19.496 199.316 19.24C198.953 18.9627 198.43 18.824 197.748 18.824H196.532C195.742 18.824 195.145 18.9627 194.74 19.24C194.334 19.496 194.089 19.8907 194.004 20.424C193.918 20.9147 194.004 21.3093 194.26 21.608C194.537 21.8853 195.038 22.0773 195.764 22.184L197.94 22.472C200.116 22.7493 201.684 23.2933 202.644 24.104C203.604 24.8933 203.956 26.1093 203.7 27.752C203.422 29.544 202.58 30.92 201.172 31.88C199.785 32.84 197.886 33.32 195.476 33.32H194.068ZM215.975 33C214.183 33 212.861 32.488 212.007 31.464C211.154 30.44 210.866 29.032 211.143 27.24L212.327 19.72H207.687L208.359 15.4H212.999L213.767 10.6H218.567L217.799 15.4H224.359L223.687 19.72H217.127L215.943 27.24C215.773 28.2 216.167 28.68 217.127 28.68H221.927L221.255 33H215.975ZM233.179 33.32C232.411 33.32 231.845 33.096 231.483 32.648C231.12 32.2 230.992 31.6027 231.099 30.856C231.227 30.088 231.547 29.48 232.059 29.032C232.592 28.584 233.232 28.36 233.979 28.36C234.747 28.36 235.312 28.584 235.675 29.032C236.037 29.48 236.155 30.088 236.027 30.856C235.92 31.6027 235.611 32.2 235.099 32.648C234.587 33.096 233.947 33.32 233.179 33.32ZM251.726 33.32C249.977 33.32 248.665 32.744 247.79 31.592C246.937 30.4187 246.66 28.8507 246.958 26.888L247.79 21.544C248.004 20.2213 248.42 19.08 249.038 18.12C249.678 17.16 250.478 16.4133 251.438 15.88C252.398 15.3467 253.465 15.08 254.638 15.08C256.132 15.08 257.273 15.5067 258.062 16.36C258.873 17.192 259.161 18.3013 258.926 19.688L258.414 18.184H258.99L259.566 14.568L260.366 9.64H262.478L258.766 33H256.654L257.102 30.216H256.334L257.518 28.712C257.305 30.12 256.654 31.24 255.566 32.072C254.5 32.904 253.22 33.32 251.726 33.32ZM252.59 31.496C253.934 31.496 255.044 31.08 255.918 30.248C256.814 29.416 257.38 28.2747 257.614 26.824L258.446 21.608C258.681 20.136 258.489 18.984 257.87 18.152C257.252 17.32 256.26 16.904 254.894 16.904C253.55 16.904 252.441 17.32 251.566 18.152C250.692 18.9627 250.137 20.1147 249.902 21.608L249.07 26.824C248.836 28.296 249.028 29.448 249.646 30.28C250.265 31.0907 251.246 31.496 252.59 31.496ZM271.586 33.32C270.242 33.32 269.132 33.0533 268.258 32.52C267.383 31.9867 266.764 31.2293 266.402 30.248C266.039 29.2667 265.954 28.1147 266.146 26.792L266.946 21.608C267.18 20.2853 267.628 19.144 268.29 18.184C268.972 17.2027 269.836 16.4453 270.882 15.912C271.948 15.3573 273.154 15.08 274.498 15.08C275.82 15.08 276.919 15.3573 277.794 15.912C278.668 16.4453 279.287 17.2027 279.65 18.184C280.012 19.144 280.087 20.2853 279.874 21.608L279.394 24.68H268.578L268.226 26.792C268.012 28.264 268.204 29.416 268.802 30.248C269.42 31.08 270.444 31.496 271.874 31.496C273.026 31.496 273.996 31.2507 274.786 30.76C275.596 30.248 276.204 29.5333 276.61 28.616H278.722C278.38 29.576 277.868 30.408 277.186 31.112C276.524 31.816 275.714 32.36 274.754 32.744C273.794 33.128 272.738 33.32 271.586 33.32ZM277.538 23.24L277.794 21.608C278.028 20.136 277.836 18.984 277.218 18.152C276.62 17.2987 275.618 16.872 274.21 16.872C272.78 16.872 271.618 17.288 270.722 18.12C269.847 18.952 269.292 20.1147 269.058 21.608L268.834 22.984H277.89L277.538 23.24ZM289.429 33L286.229 15.4H288.309L290.485 28.008C290.592 28.6267 290.688 29.256 290.773 29.896C290.88 30.536 290.955 31.0373 290.997 31.4C291.168 31.0373 291.392 30.536 291.669 29.896C291.968 29.256 292.277 28.6267 292.597 28.008L298.709 15.4H300.949L292.181 33H289.429Z" fill="#00BB00"/>
</g>
<g filter="url(#filter1_dd_2422_1260)">
<line x1="5" y1="34.7041" x2="43.1818" y2="34.7041" stroke="#00BB00" stroke-width="1.5"/>
<line x1="20" y1="26.5225" x2="44.5455" y2="26.5225" stroke="#00BB00" stroke-width="1.5"/>
<line x1="35" y1="16.9766" x2="45.9091" y2="16.9766" stroke="#00BB00" stroke-width="1.5"/>
</g>
<defs>
<filter id="filter0_dd_2422_1260" x="49.6035" y="3.36035" width="256.346" height="40.3994" filterUnits="userSpaceOnUse" color-interpolation-filters="sRGB">
<feFlood flood-opacity="0" result="BackgroundImageFix"/>
<feColorMatrix in="SourceAlpha" type="matrix" values="0 0 0 0 0 0 0 0 0 0 0 0 0 0 0 0 0 0 127 0" result="hardAlpha"/>
<feOffset/>
<feGaussianBlur stdDeviation="2.5"/>
<feComposite in2="hardAlpha" operator="out"/>
<feColorMatrix type="matrix" values="0 0 0 0 0 0 0 0 0 0.733333 0 0 0 0 0 0 0 0 0.6 0"/>
<feBlend mode="normal" in2="BackgroundImageFix" result="effect1_dropShadow_2422_1260"/>
<feColorMatrix in="SourceAlpha" type="matrix" values="0 0 0 0 0 0 0 0 0 0 0 0 0 0 0 0 0 0 127 0" result="hardAlpha"/>
<feOffset/>
<feGaussianBlur stdDeviation="1"/>
<feComposite in2="hardAlpha" operator="out"/>
<feColorMatrix type="matrix" values="0 0 0 0 0 0 0 0 0 0.733333 0 0 0 0 0 0 0 0 0.8 0"/>
<feBlend mode="normal" in2="effect1_dropShadow_2422_1260" result="effect2_dropShadow_2422_1260"/>
<feBlend mode="normal" in="SourceGraphic" in2="effect2_dropShadow_2422_1260" result="shape"/>
</filter>
<filter id="filter1_dd_2422_1260" x="0" y="11.2266" width="50.9082" height="29.2275" filterUnits="userSpaceOnUse" color-interpolation-filters="sRGB">
<feFlood flood-opacity="0" result="BackgroundImageFix"/>
<feColorMatrix in="SourceAlpha" type="matrix" values="0 0 0 0 0 0 0 0 0 0 0 0 0 0 0 0 0 0 127 0" result="hardAlpha"/>
<feOffset/>
<feGaussianBlur stdDeviation="2.5"/>
<feComposite in2="hardAlpha" operator="out"/>
<feColorMatrix type="matrix" values="0 0 0 0 0 0 0 0 0 0.733333 0 0 0 0 0 0 0 0 0.6 0"/>
<feBlend mode="normal" in2="BackgroundImageFix" result="effect1_dropShadow_2422_1260"/>
<feColorMatrix in="SourceAlpha" type="matrix" values="0 0 0 0 0 0 0 0 0 0 0 0 0 0 0 0 0 0 127 0" result="hardAlpha"/>
<feOffset/>
<feGaussianBlur stdDeviation="1"/>
<feComposite in2="hardAlpha" operator="out"/>
<feColorMatrix type="matrix" values="0 0 0 0 0 0 0 0 0 0.733333 0 0 0 0 0 0 0 0 0.8 0"/>
<feBlend mode="normal" in2="effect1_dropShadow_2422_1260" result="effect2_dropShadow_2422_1260"/>
<feBlend mode="normal" in="SourceGraphic" in2="effect2_dropShadow_2422_1260" result="shape"/>
</filter>
</defs>
</svg>
