<svg width="229" height="33" viewBox="0 0 229 33" fill="none" xmlns="http://www.w3.org/2000/svg">
<path d="M42.95 30.5L43.575 26.65L44.05 23.825H43.575L44.35 22.65C44.1833 23.7333 43.6833 24.6083 42.85 25.275C42.0167 25.925 41.0083 26.25 39.825 26.25C38.4583 26.25 37.4333 25.7917 36.75 24.875C36.0833 23.9583 35.875 22.7333 36.125 21.2L36.775 17.025C36.9417 16.0083 37.2667 15.125 37.75 14.375C38.25 13.6083 38.8667 13.025 39.6 12.625C40.35 12.2083 41.1833 12 42.1 12C43.2833 12 44.1833 12.325 44.8 12.975C45.4333 13.625 45.6583 14.5 45.475 15.6L44.9 14.425H45.5L45.85 12.25H47.5L44.6 30.5H42.95ZM40.525 24.825C41.575 24.825 42.4417 24.5 43.125 23.85C43.825 23.2 44.2667 22.3 44.45 21.15L45.075 17.075C45.275 15.925 45.125 15.0333 44.625 14.4C44.1417 13.75 43.375 13.425 42.325 13.425C41.275 13.425 40.4083 13.7417 39.725 14.375C39.0417 15.0083 38.6 15.9083 38.4 17.075L37.775 21.15C37.5917 22.3 37.7417 23.2 38.225 23.85C38.7083 24.5 39.475 24.825 40.525 24.825ZM55.3152 26.25C53.7986 26.25 52.6652 25.7917 51.9152 24.875C51.1819 23.9417 50.9402 22.6833 51.1902 21.1L52.5902 12.25H54.2402L52.8402 21.1C52.6569 22.25 52.8069 23.15 53.2902 23.8C53.7736 24.45 54.5319 24.775 55.5652 24.775C56.6152 24.775 57.4819 24.45 58.1652 23.8C58.8652 23.15 59.3152 22.25 59.5152 21.1L60.8902 12.25H62.5402L61.1652 21.1C60.9986 22.15 60.6486 23.0667 60.1152 23.85C59.5819 24.6167 58.9069 25.2083 58.0902 25.625C57.2736 26.0417 56.3486 26.25 55.3152 26.25ZM65.1055 26L65.3305 24.5H70.3055L72.0055 13.75H67.6805L67.9055 12.25H73.9055L71.9555 24.5H76.6305L76.4055 26H65.1055ZM73.4555 9.675C72.9888 9.675 72.6221 9.55 72.3555 9.3C72.0888 9.03333 71.9638 8.675 71.9805 8.225C72.0138 7.775 72.1805 7.41667 72.4805 7.15C72.7971 6.88333 73.1888 6.75 73.6555 6.75C74.1388 6.75 74.5138 6.88333 74.7805 7.15C75.0638 7.41667 75.1888 7.775 75.1555 8.225C75.1221 8.675 74.9471 9.03333 74.6305 9.3C74.3305 9.55 73.9388 9.675 73.4555 9.675ZM85.3957 26.25C84.3457 26.25 83.4707 26.05 82.7707 25.65C82.0707 25.2333 81.579 24.6417 81.2957 23.875C81.0124 23.1083 80.9457 22.2 81.0957 21.15L81.7207 17.1C81.904 16.05 82.2624 15.15 82.7957 14.4C83.329 13.6333 84.0124 13.0417 84.8457 12.625C85.679 12.2083 86.6207 12 87.6707 12C89.204 12 90.3624 12.4333 91.1457 13.3C91.9457 14.15 92.2374 15.3 92.0207 16.75H90.3707C90.5207 15.7167 90.329 14.9167 89.7957 14.35C89.279 13.7833 88.4874 13.5 87.4207 13.5C86.3374 13.5 85.4374 13.8167 84.7207 14.45C84.004 15.0667 83.5624 15.95 83.3957 17.1L82.7457 21.15C82.5624 22.2833 82.729 23.1667 83.2457 23.8C83.7624 24.4333 84.5624 24.75 85.6457 24.75C86.7124 24.75 87.5957 24.4667 88.2957 23.9C88.9957 23.3167 89.4374 22.5167 89.6207 21.5H91.2707C91.0207 22.95 90.3624 24.1083 89.2957 24.975C88.229 25.825 86.929 26.25 85.3957 26.25ZM95.5109 26L98.4109 7.75H100.061L98.4109 18.125H101.311L106.411 12.25H108.386L102.661 18.9L106.286 26H104.386L101.161 19.6H98.1859L97.1609 26H95.5109ZM115.376 26.25C114.16 26.25 113.126 26.025 112.276 25.575C111.443 25.1083 110.843 24.4667 110.476 23.65C110.11 22.8167 110.01 21.85 110.176 20.75L110.701 17.5C110.885 16.3833 111.293 15.4167 111.926 14.6C112.56 13.7833 113.368 13.15 114.351 12.7C115.335 12.2333 116.435 12 117.651 12C119.468 12 120.843 12.4583 121.776 13.375C122.71 14.2917 123.085 15.5417 122.901 17.125H119.151C119.201 16.5417 119.043 16.0833 118.676 15.75C118.326 15.4167 117.81 15.25 117.126 15.25C116.376 15.25 115.768 15.4417 115.301 15.825C114.851 16.2083 114.568 16.7667 114.451 17.5L113.926 20.75C113.81 21.4667 113.918 22.025 114.251 22.425C114.601 22.8083 115.151 23 115.901 23C116.585 23 117.151 22.8417 117.601 22.525C118.068 22.1917 118.376 21.725 118.526 21.125H122.276C121.96 22.7083 121.185 23.9583 119.951 24.875C118.718 25.7917 117.193 26.25 115.376 26.25ZM128.866 26.25C127.483 26.25 126.45 25.7667 125.766 24.8C125.083 23.8333 124.875 22.525 125.141 20.875L125.716 17.375C125.9 16.275 126.241 15.325 126.741 14.525C127.241 13.725 127.866 13.1083 128.616 12.675C129.383 12.225 130.225 12 131.141 12C132.275 12 133.108 12.3333 133.641 13C134.191 13.65 134.375 14.5667 134.191 15.75L133.441 14.875H134.316L134.641 12.25H138.366L136.191 26H132.566L132.991 23.375H132.116L133.116 22.5C132.933 23.6833 132.458 24.6083 131.691 25.275C130.941 25.925 130 26.25 128.866 26.25ZM130.741 23C131.425 23 131.983 22.8083 132.416 22.425C132.866 22.025 133.15 21.4667 133.266 20.75L133.791 17.5C133.908 16.7833 133.8 16.2333 133.466 15.85C133.15 15.45 132.65 15.25 131.966 15.25C131.266 15.25 130.7 15.45 130.266 15.85C129.833 16.2333 129.558 16.7833 129.441 17.5L128.916 20.75C128.8 21.4667 128.9 22.025 129.216 22.425C129.533 22.8083 130.041 23 130.741 23ZM144.707 26.25C143.007 26.25 141.698 25.8583 140.782 25.075C139.865 24.2917 139.507 23.2667 139.707 22H143.457C143.39 22.4 143.515 22.725 143.832 22.975C144.165 23.2083 144.615 23.325 145.182 23.325H146.282C146.965 23.325 147.507 23.2 147.907 22.95C148.307 22.7 148.54 22.35 148.607 21.9C148.673 21.4833 148.573 21.15 148.307 20.9C148.04 20.65 147.582 20.4833 146.932 20.4L145.357 20.2C143.69 19.9833 142.498 19.5833 141.782 19C141.082 18.4 140.832 17.4667 141.032 16.2C141.248 14.8667 141.873 13.8333 142.907 13.1C143.94 12.3667 145.34 12 147.107 12H148.057C149.74 12 151.023 12.3667 151.907 13.1C152.79 13.8333 153.132 14.8167 152.932 16.05H149.182C149.232 15.7167 149.107 15.45 148.807 15.25C148.523 15.0333 148.115 14.925 147.582 14.925H146.632C146.015 14.925 145.548 15.0333 145.232 15.25C144.915 15.45 144.723 15.7583 144.657 16.175C144.59 16.5583 144.657 16.8667 144.857 17.1C145.073 17.3167 145.465 17.4667 146.032 17.55L147.732 17.775C149.432 17.9917 150.657 18.4167 151.407 19.05C152.157 19.6667 152.432 20.6167 152.232 21.9C152.015 23.3 151.357 24.375 150.257 25.125C149.173 25.875 147.69 26.25 145.807 26.25H144.707ZM161.822 26C160.422 26 159.389 25.6 158.722 24.8C158.055 24 157.83 22.9 158.047 21.5L158.972 15.625H155.347L155.872 12.25H159.497L160.097 8.5H163.847L163.247 12.25H168.372L167.847 15.625H162.722L161.797 21.5C161.664 22.25 161.972 22.625 162.722 22.625H166.472L165.947 26H161.822ZM175.262 26.25C174.662 26.25 174.22 26.075 173.937 25.725C173.654 25.375 173.554 24.9083 173.637 24.325C173.737 23.725 173.987 23.25 174.387 22.9C174.804 22.55 175.304 22.375 175.887 22.375C176.487 22.375 176.929 22.55 177.212 22.9C177.495 23.25 177.587 23.725 177.487 24.325C177.404 24.9083 177.162 25.375 176.762 25.725C176.362 26.075 175.862 26.25 175.262 26.25ZM189.752 26.25C188.386 26.25 187.361 25.8 186.677 24.9C186.011 23.9833 185.794 22.7583 186.027 21.225L186.677 17.05C186.844 16.0167 187.169 15.125 187.652 14.375C188.152 13.625 188.777 13.0417 189.527 12.625C190.277 12.2083 191.111 12 192.027 12C193.194 12 194.086 12.3333 194.702 13C195.336 13.65 195.561 14.5167 195.377 15.6L194.977 14.425H195.427L195.877 11.6L196.502 7.75H198.152L195.252 26H193.602L193.952 23.825H193.352L194.277 22.65C194.111 23.75 193.602 24.625 192.752 25.275C191.919 25.925 190.919 26.25 189.752 26.25ZM190.427 24.825C191.477 24.825 192.344 24.5 193.027 23.85C193.727 23.2 194.169 22.3083 194.352 21.175L195.002 17.1C195.186 15.95 195.036 15.05 194.552 14.4C194.069 13.75 193.294 13.425 192.227 13.425C191.177 13.425 190.311 13.75 189.627 14.4C188.944 15.0333 188.511 15.9333 188.327 17.1L187.677 21.175C187.494 22.325 187.644 23.225 188.127 23.875C188.611 24.5083 189.377 24.825 190.427 24.825ZM205.268 26.25C204.218 26.25 203.351 26.0417 202.668 25.625C201.984 25.2083 201.501 24.6167 201.218 23.85C200.934 23.0833 200.868 22.1833 201.018 21.15L201.643 17.1C201.826 16.0667 202.176 15.175 202.693 14.425C203.226 13.6583 203.901 13.0667 204.718 12.65C205.551 12.2167 206.493 12 207.543 12C208.576 12 209.434 12.2167 210.118 12.65C210.801 13.0667 211.284 13.6583 211.568 14.425C211.851 15.175 211.909 16.0667 211.743 17.1L211.368 19.5H202.918L202.643 21.15C202.476 22.3 202.626 23.2 203.093 23.85C203.576 24.5 204.376 24.825 205.493 24.825C206.393 24.825 207.151 24.6333 207.768 24.25C208.401 23.85 208.876 23.2917 209.193 22.575H210.843C210.576 23.325 210.176 23.975 209.643 24.525C209.126 25.075 208.493 25.5 207.743 25.8C206.993 26.1 206.168 26.25 205.268 26.25ZM209.918 18.375L210.118 17.1C210.301 15.95 210.151 15.05 209.668 14.4C209.201 13.7333 208.418 13.4 207.318 13.4C206.201 13.4 205.293 13.725 204.593 14.375C203.909 15.025 203.476 15.9333 203.293 17.1L203.118 18.175H210.193L209.918 18.375ZM219.208 26L216.708 12.25H218.333L220.033 22.1C220.116 22.5833 220.191 23.075 220.258 23.575C220.341 24.075 220.399 24.4667 220.433 24.75C220.566 24.4667 220.741 24.075 220.958 23.575C221.191 23.075 221.433 22.5833 221.683 22.1L226.458 12.25H228.208L221.358 26H219.208Z" fill="black"/>
<line y1="25.25" x2="28" y2="25.25" stroke="black" stroke-width="1.5"/>
<line x1="11" y1="19.25" x2="29" y2="19.25" stroke="black" stroke-width="1.5"/>
<line x1="22" y1="12.25" x2="30" y2="12.25" stroke="black" stroke-width="1.5"/>
</svg>
